# xmcd
#
# Track frame offsets:
#	150
#	8880
#	22264
#	32673
#	48429
#	60539
#	76917
#	87819
#	101605
#	118237
#	128322
#	142859
#	152119
#
# Disc length: 2204 seconds
#
# Revision: 1
# Processed by: cddbd v1.5.2PL0 Copyright (c) Steve Scherf et al.
# Submitted via: audiograbber 1.83.01
#
DISCID=9b089a0d
DTITLE=Zuzana a spol. - Laska je raj
DYEAR=2012
DGENRE=Country
TTITLE0=Whiskey...
TTITLE1=Sally Gardens 
TTITLE2=Tri opily holky
TTITLE3=Come by the Hills
TTITLE4=Mormon Braes
TTITLE5=Vecnej tulak
TTITLE6=Tell Me Ma
TTITLE7=Dirty Old Town
TTITLE8=Rigs
TTITLE9=Mountain Dew
TTITLE10=Laska je raj
TTITLE11=Star Of The Country 
TTITLE12=Black Velvet Band
EXTD=
EXTT0=
EXTT1=
EXTT2=
EXTT3=
EXTT4=
EXTT5=
EXTT6=
EXTT7=
EXTT8=
EXTT9=
EXTT10=
EXTT11=
EXTT12=
PLAYORDER=
